<svg width="1535" height="94" viewBox="0 0 1535 94" fill="none" xmlns="http://www.w3.org/2000/svg">
<g clip-path="url(#clip0_0_1)">
<path d="M75.6426 55.0714L82.6228 44.2099H76.4695C76.4173 43.897 76.395 43.5544 76.395 43.1744C76.395 42.8094 76.4173 42.4742 76.4695 42.1688H86.4295L86.5562 42.504L79.5238 53.3878H86.1166C86.1688 53.7305 86.1911 54.088 86.1911 54.4456C86.1911 54.7883 86.1688 55.1161 86.1166 55.4289H75.7692L75.6426 55.0714Z" fill="#4C4C4D"/>
<path d="M95.7862 46.6908C95.7862 45.6702 95.5255 44.9699 95.0114 44.5677C94.4974 44.1728 93.745 43.9717 92.7617 43.9717C92.1583 43.9717 91.5921 44.0164 91.0706 44.1132C90.5417 44.2101 90.0352 44.3293 89.5286 44.4857C89.2008 43.9195 89.0369 43.2342 89.0369 42.4445C89.6254 42.2583 90.2661 42.1093 90.9738 42.005C91.6815 41.9007 92.3594 41.8486 93.015 41.8486C94.7358 41.8486 96.0469 42.2434 96.9483 43.0256C97.8423 43.8078 98.2967 45.0668 98.2967 46.7876V55.0864C97.6933 55.2205 96.9632 55.3695 96.0991 55.511C95.2349 55.66 94.3559 55.7271 93.4619 55.7271C92.6201 55.7271 91.8528 55.6526 91.1749 55.4961C90.497 55.3397 89.916 55.0939 89.4392 54.7437C88.9624 54.4011 88.5974 53.9615 88.3367 53.4252C88.0759 52.8888 87.9493 52.2407 87.9493 51.4883C87.9493 50.7508 88.0983 50.0952 88.4037 49.5365C88.7017 48.9778 89.1114 48.5085 89.6329 48.1434C90.1469 47.771 90.7429 47.4953 91.4208 47.3165C92.0912 47.1377 92.7989 47.0409 93.5439 47.0409C94.0952 47.0409 94.5496 47.0558 94.8997 47.0781C95.2498 47.1005 95.5478 47.1377 95.7937 47.1675V46.6908H95.7862ZM95.7862 49.2013C95.5255 49.164 95.1977 49.1342 94.8029 49.097C94.408 49.0597 94.0728 49.0448 93.7972 49.0448C92.7244 49.0448 91.9124 49.246 91.3537 49.6408C90.795 50.0356 90.5119 50.639 90.5119 51.451C90.5119 51.9651 90.6088 52.3748 90.795 52.6653C90.9812 52.9558 91.2196 53.1793 91.5027 53.3358C91.7858 53.4922 92.0987 53.5891 92.4488 53.6189C92.7915 53.6561 93.1193 53.671 93.4321 53.671C93.827 53.671 94.2367 53.6487 94.6613 53.604C95.0859 53.5593 95.4584 53.4997 95.7862 53.4103V49.2013Z" fill="#4C4C4D"/>
<path d="M101.09 42.1693C101.262 42.1321 101.44 42.1097 101.619 42.0948C101.798 42.0799 101.984 42.0725 102.178 42.0725C102.349 42.0725 102.528 42.0799 102.722 42.0948C102.908 42.1097 103.094 42.1395 103.265 42.1693C103.28 42.2066 103.303 42.3109 103.333 42.4896C103.355 42.6684 103.385 42.8621 103.407 43.0707C103.429 43.2793 103.459 43.473 103.482 43.6667C103.504 43.8604 103.519 43.9796 103.519 44.0317C103.69 43.7561 103.899 43.4879 104.137 43.2272C104.375 42.9664 104.666 42.7355 105.001 42.5269C105.336 42.3183 105.716 42.1544 106.141 42.0352C106.566 41.916 107.035 41.8564 107.549 41.8564C108.324 41.8564 109.046 41.9831 109.709 42.2438C110.372 42.5045 110.939 42.8994 111.415 43.4432C111.892 43.987 112.257 44.6798 112.525 45.5142C112.793 46.3485 112.928 47.3393 112.928 48.4791C112.928 50.7586 112.309 52.5391 111.08 53.8204C109.843 55.1017 108.1 55.7498 105.843 55.7498C105.463 55.7498 105.076 55.7275 104.681 55.6754C104.286 55.6232 103.936 55.5562 103.645 55.4668V61.5456C103.437 61.5828 103.221 61.6052 102.982 61.6201C102.751 61.635 102.535 61.6424 102.349 61.6424C102.163 61.6424 101.947 61.635 101.716 61.6201C101.485 61.6052 101.269 61.5754 101.083 61.5456V42.1693H101.09ZM103.653 53.2617C103.981 53.3809 104.316 53.4703 104.659 53.5224C105.001 53.5746 105.448 53.5969 106.007 53.5969C106.625 53.5969 107.199 53.5001 107.713 53.2989C108.227 53.0978 108.674 52.7924 109.046 52.3826C109.419 51.9655 109.709 51.444 109.925 50.8182C110.141 50.1925 110.246 49.4401 110.246 48.5834C110.246 47.2052 109.992 46.1101 109.486 45.2981C108.979 44.4861 108.145 44.0838 106.99 44.0838C106.558 44.0838 106.148 44.1583 105.746 44.3148C105.351 44.4712 104.994 44.7022 104.688 45.015C104.375 45.3279 104.13 45.7153 103.936 46.1921C103.742 46.6688 103.653 47.2276 103.653 47.8831V53.2617Z" fill="#4C4C4D"/>
<path d="M116.116 44.1801H114.432C114.395 44.0386 114.373 43.8821 114.358 43.7034C114.343 43.5246 114.336 43.3458 114.336 43.1744C114.336 43.0031 114.343 42.8243 114.358 42.6455C114.373 42.4667 114.403 42.3028 114.432 42.1688H118.626V55.4364C118.44 55.4736 118.224 55.496 117.993 55.5109C117.762 55.5258 117.546 55.5332 117.36 55.5332C117.189 55.5332 116.988 55.5258 116.749 55.5109C116.518 55.496 116.302 55.4662 116.116 55.4364V44.1801Z" fill="#4C4C4D"/>
<path d="M124.132 49.4324C124.169 50.8776 124.541 51.9429 125.257 52.6134C125.972 53.2838 127.03 53.619 128.423 53.619C129.644 53.619 130.814 53.403 131.916 52.9709C132.058 53.2317 132.17 53.5445 132.252 53.917C132.341 54.2895 132.386 54.6545 132.408 55.0196C131.842 55.2579 131.216 55.4442 130.531 55.5634C129.853 55.6826 129.093 55.7422 128.266 55.7422C127.059 55.7422 126.024 55.5708 125.16 55.2356C124.296 54.9004 123.588 54.4236 123.029 53.8127C122.47 53.2019 122.061 52.4793 121.8 51.6375C121.539 50.8031 121.413 49.8868 121.413 48.8811C121.413 47.8978 121.539 46.9815 121.785 46.1248C122.031 45.2681 122.418 44.5306 122.932 43.8974C123.446 43.2716 124.102 42.765 124.884 42.4C125.666 42.0275 126.597 41.8413 127.663 41.8413C128.579 41.8413 129.376 41.9977 130.069 42.3106C130.762 42.6235 131.335 43.0481 131.805 43.5919C132.267 44.1358 132.624 44.7839 132.863 45.5288C133.101 46.2812 133.228 47.0932 133.228 47.9723C133.228 48.2107 133.22 48.4714 133.198 48.7321C133.183 49.0003 133.16 49.2313 133.146 49.4175H124.132V49.4324ZM130.702 47.5179C130.702 47.0336 130.635 46.5718 130.508 46.1322C130.382 45.6927 130.188 45.3128 129.942 44.985C129.689 44.6572 129.376 44.3965 128.989 44.1954C128.601 43.9942 128.139 43.8974 127.603 43.8974C126.553 43.8974 125.748 44.2177 125.182 44.8509C124.623 45.4916 124.281 46.3781 124.161 47.5179H130.702Z" fill="#4C4C4D"/>
<path d="M136.058 42.1688C136.245 42.1315 136.431 42.1092 136.602 42.0943C136.774 42.0794 136.952 42.0719 137.146 42.0719C137.332 42.0719 137.526 42.0794 137.712 42.0943C137.898 42.1092 138.077 42.139 138.226 42.1688C138.278 42.4295 138.331 42.7647 138.383 43.1893C138.435 43.614 138.457 43.9715 138.457 44.2621C138.822 43.6736 139.299 43.167 139.895 42.7349C140.491 42.3028 141.251 42.0868 142.182 42.0868C142.323 42.0868 142.465 42.0943 142.607 42.1017C142.756 42.1092 142.875 42.1241 142.979 42.139C143.016 42.2954 143.039 42.4593 143.054 42.6306C143.068 42.802 143.076 42.9808 143.076 43.1744C143.076 43.383 143.061 43.5991 143.039 43.8226C143.016 44.046 142.979 44.2621 142.949 44.4707C142.808 44.4334 142.666 44.4185 142.525 44.4185C142.376 44.4185 142.264 44.4185 142.174 44.4185C141.713 44.4185 141.266 44.4856 140.841 44.6122C140.416 44.7388 140.036 44.9698 139.701 45.2976C139.366 45.6253 139.098 46.0723 138.897 46.6459C138.696 47.2121 138.599 47.9496 138.599 48.8436V55.4364C138.412 55.4736 138.196 55.496 137.965 55.5109C137.735 55.5258 137.519 55.5332 137.332 55.5332C137.146 55.5332 136.93 55.5258 136.699 55.5109C136.468 55.496 136.245 55.4662 136.036 55.4364V42.1688H136.058Z" fill="#4C4C4D"/>
<path d="M121.062 34.3619H118.559L120.332 32.5889C120.191 32.3952 120.034 32.209 119.87 32.0377C119.699 31.8663 119.52 31.7099 119.319 31.5758L117.546 33.3488V30.8457C117.315 30.8085 117.077 30.7861 116.831 30.7861H116.824C116.578 30.7861 116.339 30.8085 116.108 30.8457V33.3488L114.335 31.5758C114.142 31.7173 113.955 31.8738 113.784 32.0377C113.613 32.209 113.464 32.3878 113.322 32.5889L115.103 34.3619H112.6C112.6 34.3619 112.54 34.8312 112.54 35.0771C112.54 35.3229 112.562 35.5613 112.6 35.7922H115.103L113.33 37.5652C113.605 37.9526 113.948 38.2953 114.343 38.5784L116.116 36.8054V39.3084C116.347 39.3457 116.585 39.368 116.831 39.368H116.838C117.084 39.368 117.323 39.3457 117.554 39.3084V36.8054L119.327 38.5784C119.52 38.4368 119.707 38.2804 119.878 38.1165C120.049 37.9451 120.206 37.7664 120.34 37.5652L118.567 35.7922H121.07C121.107 35.5613 121.129 35.3229 121.129 35.0771V35.0696C121.122 34.8312 121.107 34.5929 121.062 34.3619ZM117.904 35.0845C117.904 35.4049 117.844 35.7103 117.74 35.9934C117.457 36.0977 117.151 36.1573 116.831 36.1573C116.511 36.1573 116.205 36.0977 115.922 35.9934C115.818 35.7103 115.758 35.4049 115.758 35.0845V35.0771C115.758 34.7567 115.818 34.4513 115.922 34.1682C116.205 34.0639 116.511 34.0043 116.831 34.0043C117.151 34.0043 117.457 34.0639 117.74 34.1682C117.844 34.4513 117.904 34.7567 117.904 35.0845Z" fill="#4C4C4D"/>
</g>
<g clip-path="url(#clip1_0_1)">
<path d="M294.272 32.1807C286.057 32.1807 279.396 38.8405 279.396 47.0558C279.396 55.2713 286.057 61.9307 294.272 61.9307C302.488 61.9307 309.147 55.2713 309.147 47.0558C309.147 38.8411 302.488 32.1814 294.272 32.1814L294.272 32.1807ZM301.093 53.6348C300.827 54.0718 300.255 54.2103 299.818 53.9421C296.326 51.8088 291.929 51.3256 286.751 52.5086C286.252 52.6223 285.755 52.3097 285.641 51.8106C285.527 51.3114 285.838 50.814 286.338 50.7004C292.005 49.4058 296.865 49.9632 300.786 52.3594C301.223 52.6276 301.362 53.1978 301.093 53.6348ZM302.914 49.5845C302.578 50.1302 301.864 50.3025 301.319 49.9668C297.321 47.5091 291.226 46.7973 286.496 48.2329C285.883 48.4182 285.235 48.0725 285.049 47.4602C284.864 46.8469 285.21 46.2003 285.822 46.0138C291.225 44.3746 297.941 45.1686 302.532 47.9903C303.078 48.326 303.25 49.0401 302.914 49.5847V49.5845ZM303.07 45.3668C298.276 42.5193 290.366 42.2574 285.789 43.6467C285.054 43.8696 284.277 43.4547 284.054 42.7196C283.831 41.9842 284.246 41.2075 284.981 40.984C290.236 39.3889 298.971 39.6971 304.49 42.9738C305.153 43.3662 305.37 44.2201 304.977 44.8803C304.586 45.5415 303.73 45.7594 303.071 45.3668H303.07ZM319.867 45.9125C317.299 45.3001 316.842 44.8702 316.842 43.9669C316.842 43.1136 317.645 42.5393 318.84 42.5393C319.999 42.5393 321.146 42.9754 322.35 43.8732C322.386 43.9003 322.432 43.9112 322.477 43.9041C322.523 43.8973 322.562 43.8726 322.588 43.8355L323.843 42.0677C323.894 41.9949 323.88 41.8945 323.811 41.8389C322.377 40.6891 320.764 40.1301 318.878 40.1301C316.105 40.1301 314.167 41.7944 314.167 44.1755C314.167 46.7289 315.839 47.633 318.727 48.331C321.183 48.8971 321.599 49.3713 321.599 50.219C321.599 51.1586 320.761 51.7431 319.411 51.7431C317.911 51.7431 316.688 51.2368 315.32 50.0538C315.286 50.0236 315.24 50.0112 315.197 50.0129C315.151 50.0165 315.11 50.0378 315.082 50.0716L313.675 51.7448C313.616 51.8159 313.623 51.9189 313.691 51.9793C315.283 53.4003 317.24 54.1499 319.354 54.1499C322.342 54.1499 324.272 52.5175 324.272 49.9898C324.278 47.857 323.001 46.6758 319.873 45.9148L319.867 45.9125ZM331.033 43.3795C329.738 43.3795 328.676 43.8897 327.798 44.935V43.7584C327.798 43.6655 327.724 43.5898 327.631 43.5898H325.331C325.239 43.5898 325.164 43.6655 325.164 43.7584V56.8322C325.164 56.9245 325.239 57.0009 325.331 57.0009H327.631C327.724 57.0009 327.798 56.9245 327.798 56.8322V52.7058C328.676 53.6881 329.738 54.1695 331.033 54.1695C333.44 54.1695 335.877 52.3168 335.877 48.775C335.881 45.2326 333.443 43.3793 331.035 43.3793L331.033 43.3795ZM333.202 48.775C333.202 50.5778 332.092 51.8372 330.5 51.8372C328.928 51.8372 327.742 50.521 327.742 48.775C327.742 47.0289 328.928 45.713 330.5 45.713C332.065 45.7129 333.202 47.0003 333.202 48.7749V48.775ZM342.121 43.3795C339.021 43.3795 336.593 45.7662 336.593 48.8136C336.593 51.8283 339.005 54.189 342.083 54.189C345.194 54.189 347.629 51.8106 347.629 48.775C347.629 45.7498 345.21 43.3799 342.121 43.3799V43.3795ZM342.121 51.855C340.472 51.855 339.229 50.5298 339.229 48.7741C339.229 47.0105 340.43 45.7306 342.083 45.7306C343.742 45.7306 344.993 47.0552 344.993 48.8127C344.993 50.576 343.785 51.855 342.121 51.855ZM354.248 43.5898H351.716V41.0025C351.716 40.9098 351.642 40.8341 351.549 40.8341H349.249C349.157 40.8341 349.08 40.9098 349.08 41.0025V43.5898H347.975C347.883 43.5898 347.808 43.6655 347.808 43.7584V45.7349C347.808 45.8276 347.883 45.9035 347.975 45.9035H349.08V51.0183C349.08 53.0842 350.109 54.1322 352.139 54.1322C352.963 54.1322 353.647 53.9616 354.292 53.5957C354.345 53.5673 354.377 53.5105 354.377 53.4501V51.5672C354.377 51.5104 354.347 51.4553 354.297 51.4251C354.248 51.3931 354.185 51.3913 354.134 51.418C353.692 51.64 353.263 51.7431 352.784 51.7431C352.047 51.7431 351.716 51.4073 351.716 50.6577V45.9044H354.248C354.34 45.9044 354.414 45.8287 354.414 45.7358V43.7595C354.418 43.6666 354.343 43.5909 354.249 43.5909L354.248 43.5898ZM363.065 43.6V43.2822C363.065 42.3473 363.424 41.9304 364.227 41.9304C364.706 41.9304 365.092 42.0256 365.523 42.1695C365.577 42.1862 365.632 42.1779 365.674 42.1461C365.719 42.1143 365.744 42.0633 365.744 42.0093V40.0713C365.744 39.9973 365.698 39.9317 365.625 39.9099C365.17 39.7743 364.587 39.6353 363.713 39.6353C361.591 39.6353 360.466 40.8314 360.466 43.0932V43.5799H359.361C359.269 43.5799 359.193 43.6556 359.193 43.7483V45.7349C359.193 45.8276 359.269 45.9035 359.361 45.9035H360.466V53.7911C360.466 53.8853 360.543 53.9599 360.635 53.9599H362.934C363.028 53.9599 363.102 53.8853 363.102 53.7911V45.904H365.25L368.54 53.7911C368.167 54.6189 367.799 54.7841 367.298 54.7841C366.893 54.7841 366.465 54.6633 366.03 54.4235C365.989 54.4022 365.939 54.3986 365.896 54.4111C365.852 54.427 365.815 54.459 365.797 54.5016L365.017 56.2122C364.98 56.2939 365.012 56.3881 365.09 56.4307C365.904 56.8712 366.637 57.0595 367.545 57.0595C369.243 57.0595 370.183 56.2673 371.009 54.1393L374.998 43.8302C375.02 43.7783 375.012 43.7197 374.98 43.6737C374.95 43.628 374.899 43.6005 374.844 43.6005H372.449C372.376 43.6005 372.312 43.6461 372.289 43.7135L369.836 50.7181L367.151 43.7088C367.126 43.6437 367.064 43.6005 366.994 43.6005H363.065V43.6ZM357.953 43.5898H355.653C355.56 43.5898 355.484 43.6655 355.484 43.7584V53.7911C355.484 53.8853 355.56 53.9599 355.653 53.9599H357.953C358.045 53.9599 358.122 53.8853 358.122 53.7911V43.7591C358.122 43.6662 358.047 43.5905 357.953 43.5905V43.5898ZM356.816 39.0214C355.905 39.0214 355.166 39.7589 355.166 40.67C355.166 41.5816 355.905 42.32 356.816 42.32C357.727 42.32 358.464 41.5816 358.464 40.67C358.464 39.7591 357.726 39.0214 356.816 39.0214ZM376.963 46.8158C376.053 46.8158 375.345 46.0848 375.345 45.1972C375.345 44.3096 376.062 43.5703 376.972 43.5703C377.881 43.5703 378.59 44.3011 378.59 45.188C378.59 46.0756 377.872 46.8158 376.963 46.8158ZM376.972 43.7312C376.142 43.7312 375.515 44.3902 375.515 45.1972C375.515 46.0038 376.139 46.654 376.963 46.654C377.792 46.654 378.419 45.9955 378.419 45.188C378.419 44.3814 377.796 43.7312 376.972 43.7312ZM377.331 45.3544L377.789 45.9953H377.402L376.989 45.4073H376.636V45.9953H376.313V44.2964H377.069C377.466 44.2964 377.725 44.4984 377.725 44.8384C377.727 45.1169 377.565 45.2871 377.332 45.3544H377.331ZM377.057 44.5879H376.636V45.1253H377.057C377.267 45.1253 377.393 45.0224 377.393 44.8563C377.393 44.6816 377.267 44.5879 377.057 44.5879Z" fill="#4C4C4D"/>
</g>
<g clip-path="url(#clip2_0_1)">
<path fill-rule="evenodd" clip-rule="evenodd" d="M569.965 44.5915C570.23 45.0488 570.317 45.5691 570.346 46.1541L570.383 46.9337V52.3856L570.422 53.1661C570.499 54.4407 571.439 55.3832 572.723 55.4633L573.499 55.5018V46.9337L573.538 46.1541C573.57 45.5757 573.656 45.0455 573.925 44.585C574.199 44.1125 574.593 43.7206 575.066 43.4484C575.54 43.1763 576.077 43.0335 576.623 43.0345C577.17 43.0355 577.706 43.1802 578.179 43.4541C578.651 43.728 579.044 44.1213 579.316 44.5948C579.581 45.0521 579.664 45.5822 579.696 46.1541L579.734 46.9313V52.3856L579.773 53.1661C579.853 54.4473 580.785 55.3897 582.074 55.4633L582.85 55.5018V46.1541C582.85 44.5012 582.194 42.9159 581.025 41.7469C579.857 40.5778 578.272 39.9207 576.619 39.9201C575.734 39.9192 574.859 40.107 574.053 40.4712C573.247 40.8353 572.528 41.3673 571.943 42.0316C571.359 41.3676 570.64 40.8357 569.833 40.4715C569.027 40.1072 568.153 39.919 567.268 39.9193C565.974 39.9193 564.773 40.312 563.778 40.9902C563.171 40.3128 561.813 39.9193 561.033 39.9193V55.5018L561.813 55.4633C563.117 55.3774 564.059 54.4603 564.11 53.1661L564.152 52.3856V46.9337L564.19 46.1541C564.223 45.5659 564.305 45.0488 564.571 44.5882C564.845 44.1161 565.239 43.7242 565.712 43.4517C566.185 43.1793 566.722 43.0357 567.268 43.0355C567.814 43.0356 568.351 43.1794 568.825 43.4525C569.298 43.7256 569.691 44.1184 569.965 44.5915ZM516.622 55.4642L517.402 55.5018H529.088L529.05 54.7246C528.944 53.4434 528.037 52.5075 526.752 52.4241L525.972 52.3856H518.961L528.309 43.0346L528.27 42.2583C528.21 40.964 527.264 40.0289 525.972 39.9577L525.193 39.9225L513.506 39.9193L513.544 40.6989C513.647 41.9678 514.567 42.9234 515.842 42.997L516.622 43.0355H523.633L514.286 52.3864L514.324 53.1661C514.401 54.4505 515.328 55.3807 516.622 55.4633V55.4642ZM557.974 42.2002C558.698 42.9236 559.272 43.7826 559.663 44.7279C560.055 45.6732 560.257 46.6865 560.257 47.7097C560.257 48.733 560.055 49.7462 559.663 50.6915C559.272 51.6369 558.698 52.4958 557.974 53.2193C556.512 54.68 554.53 55.5006 552.463 55.5006C550.397 55.5006 548.415 54.68 546.953 53.2193C543.91 50.1767 543.91 45.2427 546.953 42.2002C547.676 41.4769 548.534 40.9032 549.479 40.5117C550.423 40.1202 551.436 39.9186 552.458 39.9185C553.483 39.9177 554.497 40.119 555.444 40.5106C556.39 40.9023 557.25 41.4767 557.974 42.201V42.2002ZM555.769 44.4066C556.646 45.2836 557.138 46.4727 557.138 47.7126C557.138 48.9524 556.646 50.1415 555.769 51.0186C554.892 51.8949 553.703 52.3872 552.463 52.3872C551.224 52.3872 550.034 51.8949 549.157 51.0186C548.281 50.1415 547.789 48.9524 547.789 47.7126C547.789 46.4727 548.281 45.2836 549.157 44.4066C550.034 43.5302 551.224 43.038 552.463 43.038C553.703 43.038 554.892 43.5302 555.769 44.4066ZM536.106 39.9185C537.129 39.9187 538.141 40.1204 539.086 40.5121C540.031 40.9037 540.889 41.4776 541.612 42.201C544.655 45.2427 544.655 50.1775 541.612 53.2193C540.15 54.68 538.168 55.5006 536.101 55.5006C534.035 55.5006 532.052 54.68 530.59 53.2193C527.548 50.1767 527.548 45.2427 530.59 42.2002C531.313 41.4769 532.172 40.9032 533.116 40.5117C534.061 40.1202 535.074 39.9186 536.096 39.9185H536.106ZM539.407 44.405C540.284 45.282 540.776 46.4713 540.776 47.7114C540.776 48.9514 540.284 50.1407 539.407 51.0177C538.53 51.8941 537.341 52.3864 536.101 52.3864C534.861 52.3864 533.672 51.8941 532.795 51.0177C531.919 50.1407 531.427 48.9516 531.427 47.7118C531.427 46.4719 531.919 45.2828 532.795 44.4058C533.672 43.5294 534.861 43.0371 536.101 43.0371C537.341 43.0371 538.53 43.5294 539.407 44.4058V44.405Z" fill="#4C4C4D"/>
</g>
<g clip-path="url(#clip3_0_1)">
<path fill-rule="evenodd" clip-rule="evenodd" d="M776.661 56.7792C772.153 60.1016 765.62 61.8743 759.995 61.8743C752.108 61.8743 745.007 58.957 739.635 54.1051C739.213 53.7236 739.591 53.2036 740.098 53.5007C745.895 56.8738 753.063 58.903 760.468 58.903C765.461 58.903 770.955 57.8698 776.006 55.7258C776.769 55.4016 777.407 56.2255 776.661 56.7792Z" fill="#4C4C4D"/>
<path fill-rule="evenodd" clip-rule="evenodd" d="M778.535 54.6352C777.961 53.8992 774.726 54.2875 773.274 54.4596C772.832 54.5137 772.765 54.1288 773.163 53.8519C775.739 52.0388 779.966 52.5621 780.459 53.1699C780.952 53.781 780.331 58.0184 777.91 60.0409C777.539 60.3515 777.184 60.1861 777.35 59.7741C777.893 58.4168 779.112 55.3747 778.535 54.6352Z" fill="#4C4C4D"/>
<path fill-rule="evenodd" clip-rule="evenodd" d="M773.377 41.0526V39.2901C773.377 39.0233 773.579 38.8444 773.822 38.8444H781.713C781.966 38.8444 782.169 39.0267 782.169 39.2901V40.7993C782.165 41.0526 781.953 41.3835 781.575 41.9068L777.486 47.7446C779.005 47.7075 780.609 47.9337 781.986 48.7103C782.297 48.8859 782.382 49.1425 782.405 49.3957V51.2764C782.405 51.533 782.122 51.8335 781.824 51.6782C779.397 50.4053 776.172 50.2668 773.488 51.6917C773.215 51.8403 772.928 51.5431 772.928 51.2865V49.5004C772.928 49.2134 772.931 48.7238 773.218 48.2883L777.955 41.4949H773.832C773.579 41.4949 773.377 41.3159 773.377 41.0526Z" fill="#4C4C4D"/>
<path fill-rule="evenodd" clip-rule="evenodd" d="M744.593 52.0496H742.192C741.962 52.0327 741.78 51.8605 741.763 51.6411V39.3205C741.763 39.074 741.969 38.8782 742.226 38.8782H744.464C744.697 38.8883 744.883 39.0673 744.9 39.2901V40.9007H744.944C745.528 39.3441 746.625 38.6182 748.104 38.6182C749.607 38.6182 750.545 39.3441 751.22 40.9007C751.801 39.3441 753.121 38.6182 754.536 38.6182C755.542 38.6182 756.643 39.0335 757.315 39.9654C758.075 41.002 757.919 42.5078 757.919 43.828L757.916 51.6039C757.916 51.8504 757.71 52.0496 757.453 52.0496H755.056C754.816 52.0327 754.624 51.8403 754.624 51.6039V45.0739C754.624 44.554 754.671 43.2574 754.556 42.7644C754.377 41.9372 753.841 41.7042 753.145 41.7042C752.564 41.7042 751.957 42.0925 751.71 42.7138C751.464 43.3351 751.487 44.375 751.487 45.0739V51.6039C751.487 51.8504 751.281 52.0496 751.025 52.0496H748.627C748.384 52.0327 748.195 51.8403 748.195 51.6039L748.192 45.0739C748.192 43.6997 748.418 41.6772 746.713 41.6772C744.988 41.6772 745.055 43.6491 745.055 45.0739V51.6039C745.055 51.8504 744.849 52.0496 744.593 52.0496Z" fill="#4C4C4D"/>
<path fill-rule="evenodd" clip-rule="evenodd" d="M788.962 38.6182C792.524 38.6182 794.452 41.6772 794.452 45.5669C794.452 49.3248 792.322 52.3062 788.962 52.3062C785.464 52.3062 783.56 49.2472 783.56 45.4352C783.56 41.5996 785.488 38.6182 788.962 38.6182ZM788.982 41.1336C787.213 41.1336 787.102 43.5444 787.102 45.0469C787.102 46.5528 787.078 49.7671 788.962 49.7671C790.822 49.7671 790.91 47.1741 790.91 45.5939C790.91 44.554 790.866 43.3114 790.552 42.3255C790.282 41.4679 789.745 41.1336 788.982 41.1336Z" fill="#4C4C4D"/>
<path fill-rule="evenodd" clip-rule="evenodd" d="M799.071 52.0496H796.681C796.441 52.0327 796.248 51.8403 796.248 51.6039L796.245 39.28C796.265 39.0538 796.465 38.8782 796.708 38.8782H798.933C799.142 38.8883 799.314 39.0301 799.362 39.2226V41.1066H799.405C800.077 39.4218 801.019 38.6182 802.677 38.6182C803.754 38.6182 804.804 39.0065 805.48 40.0701C806.108 41.056 806.108 42.7138 806.108 43.9057V51.6613C806.081 51.8774 805.881 52.0496 805.645 52.0496H803.238C803.018 52.0327 802.836 51.8707 802.812 51.6613V44.9693C802.812 43.6221 802.968 41.6502 801.31 41.6502C800.726 41.6502 800.189 42.0419 799.922 42.6361C799.584 43.3891 799.541 44.1387 799.541 44.9693V51.6039C799.537 51.8504 799.328 52.0496 799.071 52.0496Z" fill="#4C4C4D"/>
<path fill-rule="evenodd" clip-rule="evenodd" d="M767.086 46.1645C767.086 47.0998 767.11 47.8797 766.637 48.7103C766.256 49.3856 765.648 49.8009 764.976 49.8009C764.054 49.8009 763.514 49.0986 763.514 48.062C763.514 46.0159 765.347 45.6445 767.086 45.6445V46.1645ZM769.507 52.0158C769.349 52.1576 769.119 52.1678 768.94 52.0732C768.143 51.4114 767.998 51.1042 767.562 50.4728C766.246 51.8166 765.31 52.2184 763.605 52.2184C761.583 52.2184 760.013 50.9725 760.013 48.4773C760.013 46.5291 761.066 45.2022 762.572 44.5539C763.875 43.9799 765.695 43.8786 767.086 43.72V43.4093C767.086 42.8387 767.13 42.1634 766.793 41.6705C766.502 41.2282 765.942 41.0458 765.445 41.0458C764.53 41.0458 763.717 41.5151 763.517 42.4876C763.477 42.7036 763.318 42.9164 763.099 42.9265L760.772 42.6766C760.577 42.6327 760.357 42.4741 760.415 42.1736C760.948 39.3509 763.501 38.5 765.783 38.5C766.951 38.5 768.477 38.8106 769.399 39.6953C770.567 40.7858 770.456 42.2411 770.456 43.8246V47.5657C770.456 48.6901 770.922 49.183 771.361 49.7908C771.513 50.0069 771.547 50.2668 771.351 50.4289C770.861 50.8375 769.99 51.5972 769.511 52.0226L769.507 52.0158Z" fill="#4C4C4D"/>
<path fill-rule="evenodd" clip-rule="evenodd" d="M735.615 46.1645C735.615 47.0997 735.638 47.8797 735.166 48.7103C734.784 49.3856 734.18 49.8009 733.504 49.8009C732.583 49.8009 732.046 49.0986 732.046 48.062C732.046 46.0159 733.879 45.6445 735.615 45.6445V46.1645ZM738.036 52.0158C737.877 52.1576 737.647 52.1678 737.468 52.0732C736.671 51.4114 736.53 51.1042 736.091 50.4728C734.774 51.8166 733.842 52.2184 732.134 52.2184C730.114 52.2184 728.541 50.9725 728.541 48.4773C728.541 46.5291 729.598 45.2022 731.1 44.5539C732.404 43.9799 734.224 43.8786 735.615 43.72V43.4093C735.615 42.8387 735.659 42.1634 735.324 41.6705C735.03 41.2281 734.47 41.0458 733.977 41.0458C733.062 41.0458 732.245 41.5151 732.046 42.4876C732.005 42.7036 731.847 42.9164 731.63 42.9265L729.301 42.6766C729.105 42.6327 728.889 42.474 728.943 42.1735C729.48 39.3509 732.029 38.5 734.311 38.5C735.48 38.5 737.006 38.8106 737.927 39.6953C739.096 40.7858 738.984 42.2411 738.984 43.8246V47.5657C738.984 48.69 739.45 49.183 739.889 49.7908C740.044 50.0068 740.078 50.2668 739.882 50.4289C739.393 50.8374 738.522 51.5971 738.042 52.0226L738.036 52.0158Z" fill="#4C4C4D"/>
</g>
<g clip-path="url(#clip4_0_1)">
<path d="M950.048 34.25H939.682V59.0417L950.048 34.25Z" fill="#4C4C4D"/>
<path d="M957.342 34.25H967.695V59.0417L957.342 34.25Z" fill="#4C4C4D"/>
<path d="M953.696 43.3877L960.294 59.042H955.965L953.993 54.058H949.164L953.696 43.3877Z" fill="#4C4C4D"/>
<path d="M984.608 50.0148L985.83 53.5198C985.871 53.6076 985.931 53.6482 986.039 53.6482H988.39C988.518 53.6482 988.538 53.5874 988.518 53.4591L983.662 39.9726C983.642 39.8645 983.622 39.8442 983.514 39.8442H980.596C980.515 39.8442 980.468 39.905 980.468 39.9928C980.427 40.7019 980.367 40.918 980.279 41.1274L975.95 53.4388C975.93 53.5874 975.977 53.6482 976.098 53.6482H978.199C978.327 53.6482 978.388 53.6076 978.435 53.4793L979.59 50.0148H984.608ZM980.259 47.7254C980.893 45.8075 981.731 43.3492 982.068 41.9445H982.089C982.507 43.4168 983.493 46.3342 983.939 47.7254H980.259Z" fill="#4C4C4D"/>
<path d="M994.76 53.8566C996.023 53.8566 997.367 53.627 998.731 53.0394C998.84 52.9989 998.86 52.9516 998.86 52.8503C998.819 52.4721 998.772 51.9251 998.772 51.5064V38.81C998.772 38.729 998.772 38.6885 998.671 38.6885H996.381C996.293 38.6885 996.253 38.729 996.253 38.8371V43.139C995.895 43.0984 995.645 43.0782 995.348 43.0782C991.654 43.0782 989.385 45.5161 989.385 48.5619C989.385 52.0939 991.715 53.8566 994.76 53.8566ZM996.253 51.5064C995.875 51.628 995.456 51.6752 995.031 51.6752C993.356 51.6752 991.985 50.7298 991.985 48.4336C991.985 46.4008 993.396 45.1987 995.267 45.1987C995.645 45.1987 995.976 45.2393 996.253 45.3473V51.5064Z" fill="#4C4C4D"/>
<path d="M1006.16 43.0796C1003.01 43.0796 1001.06 45.4973 1001.06 48.4823C1001.06 51.1499 1002.61 53.858 1006.11 53.858C1009.08 53.858 1011.16 51.6766 1011.16 48.4148C1011.16 45.5378 1009.4 43.0796 1006.16 43.0796ZM1006.03 45.2002C1007.82 45.2002 1008.57 46.7332 1008.57 48.4823C1008.57 50.6434 1007.46 51.7172 1006.16 51.7172C1004.56 51.7172 1003.62 50.3732 1003.62 48.435C1003.62 46.4428 1004.62 45.2002 1006.03 45.2002Z" fill="#4C4C4D"/>
<path d="M1013.53 38.6885C1013.44 38.6885 1013.38 38.729 1013.38 38.8371V53.2082C1013.38 53.269 1013.44 53.3771 1013.53 53.3973C1014.53 53.708 1015.59 53.8566 1016.67 53.8566C1019.79 53.8566 1022.81 51.9251 1022.81 48.0352C1022.81 45.219 1020.88 43.0782 1017.86 43.0782C1017.16 43.0782 1016.51 43.1862 1015.95 43.3753L1015.92 38.8573C1015.92 38.7087 1015.88 38.6885 1015.73 38.6885H1013.53ZM1020.23 48.2918C1020.23 50.6217 1018.63 51.7157 1016.91 51.7157C1016.55 51.7157 1016.24 51.6955 1015.95 51.6077V45.4756C1016.28 45.3473 1016.67 45.2393 1017.41 45.2393C1019.07 45.2393 1020.23 46.2928 1020.23 48.2918Z" fill="#4C4C4D"/>
<path d="M1031.36 49.0496C1032.38 49.0496 1033.23 49.0293 1033.52 48.9618C1033.63 48.9415 1033.67 48.901 1033.69 48.8132C1033.75 48.5836 1033.77 48.1041 1033.77 47.5166C1033.77 45.5176 1032.57 43.0796 1029.47 43.0796C1026.29 43.0796 1024.53 45.6661 1024.53 48.5836C1024.53 51.1701 1025.89 53.858 1029.72 53.858C1031.15 53.858 1032.07 53.6284 1032.87 53.2502C1032.95 53.2097 1032.99 53.1421 1032.99 53.0206V51.2714C1032.99 51.1701 1032.93 51.1499 1032.87 51.1904C1032.07 51.5281 1031.21 51.6969 1030.26 51.6969C1028.12 51.6969 1027.15 50.5151 1027.09 49.0496H1031.36ZM1027.09 47.2397C1027.26 46.2132 1027.91 45.0989 1029.36 45.0989C1030.96 45.0989 1031.38 46.4428 1031.38 47.0506C1031.38 47.0708 1031.38 47.1586 1031.38 47.2194C1031.29 47.2397 1031.02 47.2397 1030.22 47.2397H1027.09Z" fill="#4C4C4D"/>
</g>
<g clip-path="url(#clip5_0_1)">
<path d="M1192.21 54.6319V44.3221H1192.4L1199.9 54.6319H1202.26V39.4918H1199.64V49.7756H1199.45L1191.95 39.4918H1189.59V54.6319H1192.21ZM1209.69 54.8656C1213.15 54.8656 1215.28 52.6323 1215.28 48.8927C1215.28 45.1791 1213.15 42.9197 1209.69 42.9197C1206.25 42.9197 1204.1 45.1791 1204.1 48.8927C1204.13 52.6323 1206.22 54.8656 1209.69 54.8656ZM1209.69 52.6842C1207.85 52.6842 1206.8 51.3078 1206.8 48.8927C1206.8 46.5035 1207.85 45.1011 1209.69 45.1011C1211.52 45.1011 1212.57 46.5035 1212.57 48.8927C1212.57 51.3078 1211.52 52.6842 1209.69 52.6842ZM1217.66 40.3488V43.2314H1215.83V45.3089H1217.66V51.5675C1217.66 53.8009 1218.71 54.6838 1221.39 54.6838C1221.89 54.6838 1222.39 54.6319 1222.78 54.554V52.5284C1222.47 52.5544 1222.26 52.5803 1221.89 52.5803C1220.79 52.5803 1220.29 52.0869 1220.29 50.9443V45.3089H1222.78V43.2314H1220.29V40.3488H1217.66ZM1224.36 54.6319H1226.98V43.1534H1224.36V54.6319ZM1225.67 41.2577C1226.53 41.2577 1227.24 40.5565 1227.24 39.6995C1227.24 38.8166 1226.53 38.1154 1225.67 38.1154C1224.8 38.1154 1224.09 38.8166 1224.09 39.6995C1224.09 40.5565 1224.8 41.2577 1225.67 41.2577ZM1234.17 54.8656C1237.63 54.8656 1239.76 52.6323 1239.76 48.8927C1239.76 45.1791 1237.63 42.9197 1234.17 42.9197C1230.73 42.9197 1228.58 45.1791 1228.58 48.8927C1228.58 52.6323 1230.68 54.8656 1234.17 54.8656ZM1234.17 52.6842C1232.33 52.6842 1231.28 51.3078 1231.28 48.8927C1231.28 46.5035 1232.33 45.1011 1234.17 45.1011C1235.98 45.1011 1237.06 46.5035 1237.06 48.8927C1237.03 51.3078 1235.98 52.6842 1234.17 52.6842ZM1241.31 54.6319H1243.93V47.9578C1243.93 46.2698 1244.93 45.205 1246.48 45.205C1248.08 45.205 1248.81 46.088 1248.81 47.8279V54.6319H1251.44V47.2047C1251.44 44.4519 1250.02 42.9197 1247.45 42.9197C1245.71 42.9197 1244.56 43.6988 1244.01 44.9973H1243.83V43.1534H1241.28C1241.31 43.1534 1241.31 54.6319 1241.31 54.6319Z" fill="#4C4C4D"/>
<path fill-rule="evenodd" clip-rule="evenodd" d="M1164.43 38.5227C1165.19 39.1388 1165.47 39.0902 1166.9 38.9929L1180.37 38.1823C1180.66 38.1823 1180.42 37.8904 1180.32 37.858L1178.08 36.2529C1177.66 35.9286 1177.07 35.5395 1175.98 35.6368L1162.95 36.5933C1162.48 36.642 1162.38 36.8852 1162.58 37.0635L1164.43 38.5227ZM1165.24 41.6519V55.79C1165.24 56.552 1165.62 56.8276 1166.48 56.779L1181.28 55.9197C1182.14 55.871 1182.24 55.3522 1182.24 54.7361V40.6953C1182.24 40.0792 1181.99 39.7387 1181.47 39.7874L1166.01 40.6953C1165.44 40.744 1165.24 41.0358 1165.24 41.6519ZM1179.85 42.4139C1179.95 42.8355 1179.85 43.2732 1179.43 43.3219L1178.71 43.4678V53.9092C1178.09 54.2335 1177.53 54.428 1177.04 54.428C1176.27 54.428 1176.08 54.1848 1175.51 53.4715L1170.85 46.1592V53.2283L1172.33 53.5525C1172.33 53.5525 1172.33 54.4118 1171.14 54.4118L1167.86 54.6064C1167.76 54.4118 1167.86 53.9416 1168.18 53.8444L1169.04 53.6012V44.2623L1167.86 44.165C1167.76 43.7434 1168 43.1273 1168.67 43.0787L1172.2 42.8355L1177.05 50.2288V43.6948L1175.82 43.5489C1175.72 43.0301 1176.11 42.6409 1176.58 42.5923L1179.85 42.4139ZM1161.86 35.2963L1175.43 34.3073C1177.09 34.1613 1177.53 34.2586 1178.57 35.0207L1182.89 38.0525C1183.6 38.5714 1183.85 38.7173 1183.85 39.2848V55.9359C1183.85 56.9735 1183.47 57.5896 1182.14 57.6869L1166.39 58.6435C1165.39 58.6922 1164.92 58.5462 1164.4 57.8815L1161.2 53.7471C1160.63 52.9851 1160.38 52.4176 1160.38 51.7528V36.95C1160.38 36.0907 1160.77 35.3936 1161.86 35.2963Z" fill="#4C4C4D"/>
</g>
<g clip-path="url(#clip6_0_1)">
<path d="M1396.86 56.9618C1395.67 57.1695 1394.47 57.2318 1393.23 57.3977L1389.43 46.2747V57.875C1388.24 57.9995 1387.17 58.1655 1386.04 58.3315V37.0815H1389.2L1393.52 49.1386V37.0815H1396.86V56.9618ZM1403.39 44.8635C1404.68 44.8635 1406.65 44.8013 1407.83 44.8013V48.1215C1406.36 48.1215 1404.64 48.1215 1403.39 48.1838V53.1228C1405.34 52.9983 1407.29 52.8322 1409.27 52.7699V55.9655L1400.07 56.692V37.0815H1409.27V40.4019H1403.39V44.8635ZM1421.61 40.4019H1418.17V55.6753C1417.05 55.6753 1415.93 55.6754 1414.85 55.7167V40.4019H1411.4V37.0815H1421.61L1421.61 40.4019ZM1427.01 44.6353H1431.55V47.9556H1427.01V55.4886H1423.75V37.0815H1433.03V40.4019H1427.01V44.6353ZM1438.42 52.5832C1440.31 52.6246 1442.22 52.7701 1444.07 52.8737V56.1526C1441.1 55.9657 1438.13 55.7792 1435.1 55.7167V37.0815H1438.42V52.5832ZM1446.87 56.3809C1447.93 56.4432 1449.05 56.5055 1450.13 56.6298V37.0815H1446.87V56.3809ZM1464.67 37.0815L1460.46 47.1878L1464.67 58.3315C1463.43 58.1655 1462.18 57.9372 1460.94 57.7297L1458.55 51.5872L1456.12 57.2318C1454.92 57.0241 1453.76 56.9618 1452.56 56.7958L1456.83 47.0632L1452.97 37.0815H1456.54L1458.72 42.6638L1461.04 37.0815H1464.67V37.0815Z" fill="#4C4C4D"/>
</g>
<defs>
<clipPath id="clip0_0_1">
<rect width="68" height="34" fill="white" transform="translate(75.6426 30)"/>
</clipPath>
<clipPath id="clip1_0_1">
<rect width="99.1667" height="34" fill="white" transform="translate(279.344 30)"/>
</clipPath>
<clipPath id="clip2_0_1">
<rect width="69.4166" height="34" fill="white" transform="translate(513.506 30)"/>
</clipPath>
<clipPath id="clip3_0_1">
<rect width="77.9166" height="34" fill="white" transform="translate(728.541 30)"/>
</clipPath>
<clipPath id="clip4_0_1">
<rect width="94.2083" height="34" fill="white" transform="translate(939.682 30)"/>
</clipPath>
<clipPath id="clip5_0_1">
<rect width="91.375" height="34" fill="white" transform="translate(1160.38 30)"/>
</clipPath>
<clipPath id="clip6_0_1">
<rect width="78.625" height="34" fill="white" transform="translate(1386.04 30)"/>
</clipPath>
</defs>
</svg>
